<?xml version="1.0" encoding="utf-8"?>
<!-- Generator: Adobe Illustrator 28.2.0, SVG Export Plug-In . SVG Version: 6.00 Build 0)  -->
<svg version="1.0" id="圖層_1" xmlns="http://www.w3.org/2000/svg" xmlns:xlink="http://www.w3.org/1999/xlink" x="0px" y="0px"
	 viewBox="0 0 465 105" style="enable-background:new 0 0 465 105;" xml:space="preserve">
<style type="text/css">
	.st0{fill:#FFFFFF;}
</style>
<g>
	<path class="st0" d="M6,80.4v-1.3l4.4-0.6V49.6L6,49v-1.3h10.7v30.8l4.4,0.6v1.3H6z M9.7,39.1c-0.8-0.8-1.3-1.8-1.3-3
		c0-1.2,0.4-2.2,1.2-3c0.8-0.8,1.8-1.2,3.1-1.2c1.1,0,2.1,0.4,2.9,1.2c0.8,0.8,1.2,1.8,1.2,3c0,1.2-0.4,2.2-1.2,3
		c-0.8,0.8-1.8,1.2-2.9,1.2C11.5,40.3,10.5,39.9,9.7,39.1z"/>
	<path class="st0" d="M24.2,79.1l4.4-0.6V49.6l-4.4-0.6v-1.3h10.7v6.8c1.6-2.3,3.4-4.1,5.5-5.4c2.1-1.3,4.4-2,6.8-2
		c3,0,5.4,0.8,7.2,2.3c1.7,1.5,2.6,3.8,2.6,6.8v22.4l4.4,0.6v1.3H46.9v-1.3l3.8-0.6V56.2c0-2.2-0.4-3.9-1.3-5.1
		c-0.9-1.2-2.3-1.8-4.1-1.8c-1.9,0-3.8,0.7-5.6,2.1c-1.8,1.4-3.4,3.1-4.8,5.2v21.8l3.8,0.6v1.3H24.2V79.1z"/>
	<path class="st0" d="M70.7,78.9c-1.7-1.4-2.5-3.6-2.5-6.6V49.6l-4.5-0.6v-1.3h4.5v-5.2l6.3-1.6v6.8h8.2v1.3l-8.2,0.6v22.6
		c0,4.5,1.6,6.7,4.8,6.7c0.7,0,1.3-0.1,1.9-0.3c0.6-0.2,1.1-0.4,1.5-0.6c0.4-0.2,0.6-0.4,0.7-0.4l0.8,1C82.3,80.2,80,81,77.4,81
		C74.6,81,72.4,80.3,70.7,78.9z"/>
	<path class="st0" d="M93.4,78.9c-2.5-1.4-4.5-3.4-5.9-6c-1.5-2.6-2.2-5.5-2.2-8.9c0-3.3,0.7-6.3,2.2-8.8c1.5-2.6,3.4-4.6,5.9-6
		c2.5-1.4,5.2-2.1,8.3-2.1c3,0,5.8,0.7,8.3,2.1c2.5,1.4,4.5,3.4,5.9,6c1.5,2.6,2.2,5.5,2.2,8.8c0,3.3-0.7,6.3-2.2,8.9
		c-1.5,2.6-3.4,4.6-5.9,6c-2.5,1.4-5.2,2.1-8.3,2.1C98.7,81,95.9,80.3,93.4,78.9z M108.7,76.2c1.6-2.3,2.4-5.3,2.4-9v-6.3
		c0-3.7-0.8-6.7-2.4-9c-1.6-2.3-3.9-3.4-7-3.4c-3.1,0-5.5,1.1-7,3.4c-1.6,2.3-2.4,5.3-2.4,9v6.3c0,3.7,0.8,6.8,2.4,9
		c1.6,2.3,3.9,3.4,7,3.4C104.8,79.6,107.1,78.5,108.7,76.2z"/>
	<path class="st0" d="M144,78.9c-1.7-1.4-2.5-3.6-2.5-6.6V49.6l-4.5-0.6v-1.3h4.5v-5.2l6.3-1.6v6.8h8.2v1.3l-8.2,0.6v22.6
		c0,4.5,1.6,6.7,4.8,6.7c0.7,0,1.3-0.1,1.9-0.3c0.6-0.2,1.1-0.4,1.5-0.6c0.4-0.2,0.6-0.4,0.7-0.4l0.8,1c-1.9,1.7-4.2,2.5-6.8,2.5
		C147.9,81,145.6,80.3,144,78.9z"/>
	<path class="st0" d="M159.1,79.1l4.4-0.6V31.7l-4.4-0.6v-1.3h10.7v24.6c1.6-2.3,3.4-4.1,5.5-5.4c2.1-1.3,4.4-2,6.8-2
		c3,0,5.4,0.8,7.2,2.3c1.7,1.5,2.6,3.8,2.6,6.8v22.4l4.4,0.6v1.3h-14.5v-1.3l3.8-0.6V56.2c0-2.2-0.4-3.9-1.3-5.1
		c-0.9-1.2-2.3-1.8-4.1-1.8c-1.9,0-3.8,0.7-5.6,2.1c-1.8,1.4-3.4,3.1-4.8,5.2v21.8l3.8,0.6v1.3h-14.5V79.1z"/>
	<path class="st0" d="M208.4,78.9c-2.5-1.4-4.5-3.4-6-6c-1.5-2.6-2.2-5.5-2.2-8.9c0-3.4,0.7-6.3,2.2-8.9c1.5-2.5,3.4-4.5,5.9-5.9
		c2.5-1.4,5.2-2.1,8.2-2.1c2.7,0,5,0.6,7.1,1.8c2.1,1.2,3.7,2.8,4.9,4.9c1.2,2.1,1.8,4.5,1.8,7.2h-23.2v6.3c0,3.7,0.8,6.7,2.5,9
		c1.7,2.3,4.1,3.4,7.2,3.4c2.9,0,5.5-0.8,7.7-2.5c2.2-1.6,3.6-3.8,4.1-6.4h1.5c-0.6,3.1-2.1,5.6-4.5,7.5c-2.4,1.9-5.3,2.8-8.8,2.8
		C213.8,81,210.9,80.3,208.4,78.9z M223.5,59.3c0-3.7-0.6-6.4-1.7-8.2c-1.1-1.8-2.9-2.7-5.3-2.7c-2.8,0-5,1-6.6,3
		c-1.6,2-2.4,4.6-2.7,7.9H223.5z"/>
	<path class="st0" d="M264.3,82.5c-0.6,0-1.4-0.2-2.3-0.5c-3.6-1.3-6.3-3.9-8.1-8c-1.8-4-2.7-8.8-2.7-14.3c0-5.9,0.9-11.8,2.8-17.6
		c1.3-3.9,2.9-7.5,4.8-10.6c1.9-3.2,4.1-5.7,6.6-7.7c2.5-2,5.1-3.2,7.9-3.5c1.7-0.2,3.2-0.3,4.5-0.3c0.8,0,1.3,0,1.4,0.1
		c-0.5,0.3-1.3,0.7-2.6,1.1c-0.7,0.2-1.2,0.4-1.7,0.6c-0.4,0.2-0.7,0.3-0.8,0.3c-4.2,1.4-7.8,4.1-10.6,8c-2.9,4-5.1,8.6-6.6,13.9
		c-1.4,5.3-2.2,10.5-2.2,15.8c0,5,0.6,9.4,1.9,13.1c1.3,3.7,3.1,6,5.5,7c2,0.9,3,1.6,3,2.1C265.3,82.3,265,82.5,264.3,82.5z"/>
	<path class="st0" d="M351.3,96.7c-6.9,0-13-2.1-18.1-6.2c-2.5-2-5.1-4.7-8-8c-2.9-3.3-5.7-6.8-8.4-10.7c-2.7-3.8-5.1-7.4-7.2-10.7
		c-3.7,0.6-7.1,1-10.3,1.2c-1.8,3.3-3.2,6.5-4.5,9.6c-1.2,3.1-2.1,6-2.8,8.8c-0.1,0.5-0.2,1-0.2,1.3c0,0.3-0.1,0.6-0.1,0.8
		c0,1.6,0.3,3,0.9,4.1c0.6,1.2,1.3,1.8,2.1,1.9c0.7,0.1,1.3,0.3,1.7,0.5c0.4,0.3,0.7,0.6,0.9,0.9v0.3c0,0.6-0.7,0.9-2.2,0.9
		c-5,0-7.5-2.3-7.5-6.8c0-0.4,0-0.9,0.1-1.5c0.1-0.7,0.2-1.5,0.4-2.4c1.1-5.6,3.3-11.8,6.6-18.5c-1.5-0.4-3.1-1.1-4.8-2
		c-1.7-0.9-3.1-2.2-4.3-3.9c-1.1-1.7-1.7-4-1.7-6.9c0-3.1,0.7-5.6,2.2-7.7c1.5-2.1,3.5-3.1,6-3.1c2,0,4.3,0.7,6.7,2.2
		c0.2,0.1,0.4,0.3,0.7,0.5c0.3,0.3,0.8,0.6,1.4,0.9c1,0.6,2,1.6,3.2,3c2.2-3.2,4.4-6.3,6.8-9.3c2.3-2.9,4.7-5.8,7.2-8.5
		c0.3-0.3,0.5-0.8,0.5-1.4v-0.5c0-0.6,0.1-1.1,0.4-1.3c0.7-0.7,2.1-1.5,4.3-2.4c0.4-0.3,0.7-0.5,0.8-0.8c0.4-0.5,1.1-0.8,1.8-0.8
		c1.2,0,2.4,0.4,3.4,1.2c1.1,0.8,1.2,1.6,0.5,2.3l-2.4,2.5c-2,2-4.3,4.5-7,7.4c-2.3,2.5-4.5,5-6.7,7.6c-2.2,2.6-4.3,5.3-6.3,8.1
		c0.7,1.1,1.5,2.2,2.4,3.5c0.9,1.3,1.8,2.7,2.6,4.2c5.3-1,10.3-2.2,14.9-3.7c4.6-1.5,9.2-3.6,13.7-6.1c5.7-3.2,10-6.6,13-10.3
		c3-3.7,4.5-7.2,4.5-10.7c0-4.1-2.1-7.5-6.4-10.2c-4.3-2.7-10.2-4-17.9-4c-2.5,0-5.1,0.2-7.9,0.5c-2.8,0.4-5.8,0.9-9.1,1.6
		c-6.4,1.4-12.8,3.8-19.2,7.1c-6.4,3.3-11.7,7.5-15.9,12.6c-1,1.1-1.8,1.4-2.5,0.7c-0.3-0.3-0.3-0.9-0.1-1.7
		c0.1-0.6,0.6-1.6,1.4-2.9c2.9-4.1,7.6-7.8,14.2-11c4.4-2.3,9-4.2,13.8-5.8c4.8-1.6,9.5-2.8,13.9-3.7c4.5-0.9,8.3-1.3,11.6-1.3
		c6.3,0,11.9,0.7,16.8,2.2c9.6,3.1,14.3,8,14.3,14.7c0,3.7-1.6,7.5-4.9,11.4c-3.2,3.9-8.1,7.6-14.5,11.2c-3.9,2.2-8.8,4.4-14.6,6.6
		c-5.8,2.2-11.6,4.1-17.5,5.6c0.8,1.4,2,3.2,3.6,5.3c1.6,2.1,3.3,4.3,5.2,6.5c1.9,2.2,3.7,4.3,5.6,6.3c1.8,2,3.4,3.6,4.7,4.8
		c7.2,6.7,14.5,10,22.1,10c7.1,0,13.1-3,18.1-9.1c0.2-0.2,0.4-0.3,0.7-0.3c0.3,0,0.6,0.2,0.9,0.5c0.2,0.3,0.2,0.7-0.1,1.2
		c-3.2,3.8-6.8,6.6-11,8.5C360.1,95.7,355.8,96.7,351.3,96.7z M296.9,57.9c0.4-0.9,1.1-2,1.9-3.5c0.8-1.4,1.8-3.1,3-5.1
		c-1.8-2.3-3.7-4-5.7-5.1c-2.1-1.1-4.1-1.6-6.1-1.6c-1.8,0-2.6,1-2.6,3c0,3.2,0.8,5.8,2.4,8C291.3,55.8,293.7,57.2,296.9,57.9z
		 M301.8,58.3c0.6,0,1.4,0,2.4-0.1c1,0,2.1-0.1,3.5-0.2l-2.9-4.5c-0.6,0.9-1.2,1.7-1.6,2.5C302.7,56.8,302.2,57.6,301.8,58.3z"/>
	<path class="st0" d="M357.3,81.8c-1.8,0-3.5-0.5-4.9-1.4c-2.3-1.8-3.4-4.4-3.4-7.9c0-3.5,1.2-7.2,3.7-11.2
		c2.5-3.9,6.2-7.6,11.2-10.9c0.9-0.6,2.1-0.9,3.5-0.9c1.9,0,3.7,0.5,5.2,1.6c1.5,1.1,2.1,2.4,1.8,4.1c-0.6,2.7-2,5.1-4,7.2
		c-2.1,2.1-4.5,4-7.2,5.6c-2.8,1.6-5.6,3.2-8.5,4.7c-0.1,0.3-0.2,0.5-0.2,0.8c0,0.3-0.1,0.5-0.1,0.8c0,1.2,0.4,2.3,1.2,3.2
		c0.8,0.9,2,1.4,3.5,1.4c1.1,0,2.1-0.2,2.9-0.5c1.4-0.5,2.6-1,3.5-1.4c0.9-0.4,2-1.1,3.2-2c1.2-0.9,2.9-2.2,5-3.9
		c1-0.7,1.5-1.1,1.7-1.1c0.5,0,0.7,0.4,0.5,1.2c-0.9,1.4-2.4,2.9-4.5,4.6c-2.1,1.7-4.5,3.1-7.1,4.3
		C361.7,81.2,359.4,81.8,357.3,81.8z M355.4,69.1c0.7,0,2.1-0.7,4.3-2.1c2.2-1.4,4.3-2.9,6.2-4.6c3.3-3.1,5-5.4,5-7.1
		c0-0.4-0.1-0.8-0.4-1.2c-0.3-0.4-0.7-0.7-1.2-0.7c-1.7,0-4.5,2-8.4,5.9C358.2,62,356.4,65.2,355.4,69.1z M379.3,46.1
		c-0.8-0.1-1.6-0.6-2.4-1.4c-0.8-0.9-1.5-1.9-2.1-3c-0.6-1.1-1.1-2-1.3-2.7c-1.4,0.7-3.1,1.6-5.2,2.7c-2.1,1.1-4,2.1-5.8,2.9
		c-1.8,0.8-3.1,1.2-3.9,1.2c-0.4,0-0.5-0.2-0.5-0.5c0-0.2,0.1-0.3,0.3-0.5c0.2-0.2,0.5-0.3,0.7-0.5c0.7-0.5,1.8-1.3,3.3-2.3
		c1.5-1,3.1-2.1,4.9-3.2c1.8-1.1,3.4-2.1,4.8-2.9c1.4-0.8,2.4-1.2,3-1.2c1.1,0,1.8,0.4,2,1.3c0.3,1.4,0.9,3,1.7,4.9
		c0.8,1.8,1.4,3.1,1.7,3.8c0.1,0.1,0.1,0.3,0.1,0.5c0,0.3-0.2,0.5-0.5,0.7C379.9,46,379.6,46.1,379.3,46.1z"/>
	<path class="st0" d="M378.6,85.1c-1.9,0-2.7-2.4-2.4-7.1c0.2-1.1,0.5-2.7,1.1-5c0.6-2.3,1.3-4.8,2.2-7.6c0.9-2.8,1.7-5.2,2.5-7.4
		c0.5-1.5,1.5-2.9,2.8-4.2c1.4-1.3,2.5-2,3.4-2c0.5,0,0.8,0.4,0.8,1.1c0,1-0.5,2.5-1.6,4.5c-1.3,2.5-2.4,4.5-3.2,6.2
		c-0.8,1.7-1.4,3.4-1.9,5.1c-0.5,1.7-1,3.8-1.5,6.2v1.2c0,2.8,0.6,3.7,1.8,2.6c2.3-1.8,4.6-4,7.1-6.5c2.5-2.5,4.8-5,7-7.6
		c2.2-2.5,3.9-4.8,5.3-6.7c0.9-1.4,1.9-2.5,3.1-3.2c1.2-0.7,1.7-0.9,1.5-0.3c-0.1,0.8-0.8,2.2-2.2,4.3c-1.4,2.1-3,4.4-5,7
		c-2,2.6-4,5.1-6,7.4c-2.1,2.4-3.9,4.2-5.5,5.5c-0.6,0.6-1.5,1.4-2.7,2.4c-1.2,1-2.4,1.9-3.6,2.7C380.4,84.7,379.3,85.1,378.6,85.1z
		"/>
	<path class="st0" d="M411.3,81.8c-1.8,0-3.5-0.5-4.9-1.4c-2.3-1.8-3.4-4.4-3.4-7.9c0-3.5,1.2-7.2,3.7-11.2
		c2.5-3.9,6.2-7.6,11.2-10.9c0.9-0.6,2.1-0.9,3.5-0.9c1.9,0,3.7,0.5,5.2,1.6c1.5,1.1,2.1,2.4,1.8,4.1c-0.6,2.7-2,5.1-4,7.2
		c-2.1,2.1-4.5,4-7.2,5.6c-2.8,1.6-5.6,3.2-8.5,4.7c-0.1,0.3-0.2,0.5-0.2,0.8c0,0.3-0.1,0.5-0.1,0.8c0,1.2,0.4,2.3,1.2,3.2
		c0.8,0.9,2,1.4,3.5,1.4c1.1,0,2.1-0.2,2.9-0.5c1.4-0.5,2.6-1,3.5-1.4c0.9-0.4,2-1.1,3.2-2c1.2-0.9,2.9-2.2,5-3.9
		c1-0.7,1.5-1.1,1.7-1.1c0.5,0,0.7,0.4,0.5,1.2c-0.9,1.4-2.4,2.9-4.5,4.6c-2.1,1.7-4.5,3.1-7.1,4.3
		C415.7,81.2,413.4,81.8,411.3,81.8z M409.5,69.1c0.7,0,2.1-0.7,4.3-2.1c2.2-1.4,4.3-2.9,6.2-4.6c3.3-3.1,5-5.4,5-7.1
		c0-0.4-0.1-0.8-0.4-1.2c-0.3-0.4-0.7-0.7-1.2-0.7c-1.7,0-4.5,2-8.4,5.9C412.3,62,410.4,65.2,409.5,69.1z"/>
	<path class="st0" d="M432.3,82.3c-0.9,0-1.3,0-1.5-0.1c-0.6-0.2-0.6-0.4,0-0.6c0.4-0.2,1.3-0.5,2.6-0.8c0.2-0.1,0.4-0.1,0.6-0.2
		c0.2-0.1,0.4-0.1,0.6-0.2c0.2-0.1,0.5-0.1,0.6-0.2c0.2-0.1,0.4-0.1,0.6-0.2c4.2-1.4,7.7-4.1,10.7-8c2.9-4,5-8.6,6.5-13.9
		c1.4-5.3,2.2-10.5,2.2-15.8c0-5-0.6-9.4-1.9-13c-1.3-3.6-3.1-5.9-5.4-6.8c-2-0.9-3-1.6-3-2c0-0.3,0.2-0.5,0.7-0.5
		c0.6,0,1.2,0.1,2,0.3c0.8,0.2,1.4,0.4,1.8,0.6c3.2,1.6,5.7,4.3,7.3,8.2c1.6,3.9,2.4,8.4,2.4,13.6c0,5.9-1,11.7-2.8,17.5
		c-1.2,3.9-2.8,7.5-4.8,10.6c-2,3.2-4.2,5.7-6.6,7.7c-2.5,2-5.1,3.2-7.9,3.6C435.2,82.2,433.7,82.3,432.3,82.3z"/>
</g>
</svg>
