<?xml version="1.0" encoding="utf-8"?>
<!-- Generator: Adobe Illustrator 28.2.0, SVG Export Plug-In . SVG Version: 6.00 Build 0)  -->
<svg version="1.0" id="圖層_1" xmlns="http://www.w3.org/2000/svg" xmlns:xlink="http://www.w3.org/1999/xlink" x="0px" y="0px"
	 viewBox="0 0 75 73" style="enable-background:new 0 0 75 73;" xml:space="preserve">
<style type="text/css">
	.st0{fill:#FFFFFF;}
</style>
<g>
	<path class="st0" d="M39.7,50.7c-1.4,0.3-2.7,0.6-4,0.9c-1.9,0.4-3.8,1-5.6,1.9c-2.4,1.2-4,3-5,5.4c-1.1,2.6-1.6,5.3-2.2,8.1
		c0,0.2-0.1,0.4-0.2,0.7c-0.1-0.6-0.2-1.2-0.3-1.7c-0.5-2.3-1-4.7-1.9-6.9c-1.2-2.9-3.2-4.9-6.1-6c-2.6-1-5.3-1.6-8-2.1
		c-0.2,0-0.4-0.1-0.6-0.2c0.6-0.1,1.1-0.2,1.7-0.3c2.4-0.5,4.7-1,6.9-1.9c2.9-1.2,4.9-3.2,6-6.1c1.1-2.7,1.6-5.5,2.2-8.3
		c0-0.1,0.1-0.2,0.1-0.4c0.3,1.4,0.5,2.6,0.8,3.8c0.5,2,1,4,2,5.9c1.2,2.3,3,3.9,5.4,4.9c2.6,1.1,5.3,1.6,8,2.2
		C39.2,50.6,39.4,50.6,39.7,50.7C39.6,50.7,39.7,50.7,39.7,50.7z"/>
	<path class="st0" d="M34.7,40.3c-0.1,0-0.3,0-0.4-0.1c-0.2-0.2-0.2-0.5,0-0.7l34-34c0.2-0.2,0.5-0.2,0.7,0s0.2,0.5,0,0.7l-34,34
		C34.9,40.3,34.8,40.3,34.7,40.3z"/>
</g>
</svg>
